<?xml version="1.0" encoding="utf-8"?>
<!-- Generator: Adobe Illustrator 22.1.0, SVG Export Plug-In . SVG Version: 6.00 Build 0)  -->
<svg version="1.1" id="Layer_1" xmlns="http://www.w3.org/2000/svg" xmlns:xlink="http://www.w3.org/1999/xlink" x="0px" y="0px"
	 viewBox="0 0 100 125" style="enable-background:new 0 0 100 125;" xml:space="preserve">
<style type="text/css">
	.st0{fill:#FFFFFF;}
</style>
<path class="st0" d="M63.9,62.1h3h1.5h0.7h0.2h0.1h0.2H70c2.9-0.1,5.6-1.8,7-4.2c0.7-1.2,1.1-2.6,1.2-4.1c0-0.4,0-0.6,0-0.8v-0.7
	v-1.5l0.1-6c0.1-8,0.1-16,0.1-24v-0.4v-0.2v-0.3c0-0.3,0-0.4-0.1-0.9c0-0.2-0.1-0.4-0.1-0.6l-0.1-0.5c-0.1-0.4-0.2-0.7-0.4-1
	c-0.6-1.4-1.5-2.6-2.6-3.5s-2.5-1.6-4-1.9c-0.4-0.1-0.7-0.1-1.1-0.1h-0.5c-0.2,0-0.3,0-0.4,0h-1.5c-4,0-8,0.1-12,0.1
	c-4-0.1-7.9-0.1-11.9-0.2c-6.3,0-12.6-0.1-18.9-0.1h-9.5L13,11h-0.3h-0.1h-0.3c-0.1,0-0.3,0-0.4,0l-0.5,0.1
	c-0.6,0.1-1.2,0.3-1.7,0.5c-2.2,0.9-4,2.6-5,4.8c-0.5,1.1-0.8,2.3-0.8,3.4c0,0.1,0,0.3,0,0.4v0.3v0.6v1.2V27c0,3.1,0.1,6.3,0.1,9.4
	c0,3.1,0.1,6.3,0.1,9.4l0.1,4.7l0.1,2.4v0.6v0.2v0.1v0.1v0.3c0,0.1,0,0.3,0.1,0.4l0.1,0.5c0.1,0.3,0.1,0.6,0.2,0.8
	c0.7,2.5,2.6,4.3,4.5,5.1c1,0.4,2,0.6,2.9,0.7c1,0,1.5-0.1,2.1-0.2c2.3-0.4,3.7-0.9,3.4-1.6c-0.2-0.6-1.6-1.2-3.9-1.6
	c-0.3-0.1-0.6-0.1-0.9-0.2c-0.2-0.1-0.5-0.1-0.7-0.2c-0.5-0.2-0.9-0.4-1.4-0.7c-0.9-0.6-1.6-1.7-1.8-2.9c0-0.1,0-0.2-0.1-0.3
	c0,0,0,0,0-0.1v-0.2v-0.3v-1.1v-2.5c0-1.6,0.1-3.3,0.1-4.9C9,41.6,9,38.3,9.1,35l0.1-9.9v-5c0-0.1,0-0.2,0-0.2v-0.2
	c0-0.1,0-0.2,0-0.4c0-0.2,0.1-0.5,0.2-0.7c0.2-0.4,0.5-0.9,0.8-1.2c0.3-0.3,0.6-0.5,1-0.7c0.2-0.1,0.4-0.2,0.5-0.2l0.3-0.1
	c0.1,0,0.1,0,0.2,0c0.1,0,0.7-0.1,0.8-0.1h1h2l8-0.1l16,0.1l15.9-0.2l8-0.1h4h1c0.3,0,0.7,0,0.9,0c0.4,0,0.9,0.1,1.3,0.3
	c1.1,0.5,2,1.6,2.2,2.7c0,0.1,0.1,0.3,0.1,0.4s0,0.2,0,0.4v0.3l0,0c0,0,0-0.2,0-0.1l0,0v0.1v0.2V21l-0.1,2.8
	c-0.1,3.7-0.2,7.4-0.3,11.1c-0.1,3.7-0.1,7.4-0.2,11.1l-0.1,5.6V53v0.3v0.2v0.1c0,0.1,0,0.2,0,0.4c-0.1,0.5-0.3,0.9-0.5,1.3
	c-0.5,0.8-1.5,1.3-2.4,1.3h-0.3h-0.1h-0.2h-0.7h-1.4h-2.8c-3.7,0-7.4,0-11.2,0c-7.4,0-14.9,0-22.3,0l0,0c-0.8,0-1.6,0.4-2.2,1
	c-2.6,3.1-5.3,6.1-7.9,9.2v-1.4c0-1.7-0.5-4.4-0.9-5.2c-0.7-1.7-1.4,0.5-1.8,3.8c-0.3,2.1-0.6,4.2-0.8,6.4L17,71.3v0.4v0.2V72v0.2
	c0,0,0,0.2,0,0.3c0,0.1,0.1,0.2,0.1,0.3c0.1,0.2,0.2,0.4,0.4,0.6c0.3,0.3,0.8,0.5,1.3,0.5s1-0.3,1.3-0.6l0.6-0.6
	c0.4-0.4,0.8-0.8,1.3-1.2c3.1-3.1,6.3-6.4,9.5-9.9c2.8,0.1,5.5,0.2,8.3,0.2C47.9,61.9,55.9,62,63.9,62.1z M18.6,71.9L18.6,71.9
	C18.3,71.9,18.4,71.9,18.6,71.9z M96.2,40.9c0-2.3,0-4.5,0-6.8v-0.2v-0.3V33c-0.1-0.4-0.1-0.8-0.2-1.2c-0.2-0.8-0.5-1.6-0.9-2.3
	C94.3,28,93,26.8,91.6,26c-0.6-0.3-1.4-0.6-2.2-0.5c-0.4,0-0.8,0-1.1,0.1c-0.1,0-0.2,0-0.2,0c-0.1,0-0.1,0-0.1,0.1
	c-0.1,0-0.2,0.1-0.2,0.1c-0.5,0.3-0.4,0.7,0,1c0.1,0.1,0.2,0.2,0.3,0.2c0.2,0.1,0.3,0.2,0.5,0.3c0.4,0.2,0.7,0.4,1.1,0.7
	c1.2,0.9,2.1,2.2,2.5,3.5c0.2,0.7,0.3,1.4,0.2,2c-0.1,0.8-0.2,1.5-0.3,2.3c-0.4,3.3-0.6,6.7-0.7,10.2c-0.2,5.9-0.3,11.9-0.5,17.8
	L90.6,66v1.1c0,0,0,0.8-0.1,0.8c0,0.1-0.1,0.3-0.2,0.5S90.1,68.8,90,69c-0.2,0.4-0.5,0.7-0.8,0.9c-0.3,0.3-0.7,0.4-1.1,0.6
	c-0.2,0.1-0.4,0.1-0.6,0.1c-0.1,0-0.2,0-0.3,0c-0.1,0-0.2,0-0.4,0h-4.5l0,0c-1.6,0-2.9,1.3-2.9,2.8l0,0c0,2.4,0,4.8,0,7.2v0.5
	l-0.5-0.7c-2.5-3-5-6-7.5-9c-0.5-0.6-1.3-1-2.2-1l0,0c-9.2-0.1-18.5,0-27.6,0.5c-3.7,0.2-6.8,0.9-6.5,2.2c0.3,1.3,2.9,2.2,6.7,2.3
	c6.9,0.3,13.8,0.5,20.6,0.5c1.9,0,3.8,0,5.7-0.1l8,9l2.2,2.4L79,88c0.5,0.6,1.3,1,2.2,1c1.6,0.1,3.2-1.1,3.4-2.9V86v-0.2v-0.1v-0.2
	v-0.4v-0.8v-1.6l-0.1-3.3c0.1-1.1,0.2-2.3,0.3-3.4l1.2,0.1h0.8h0.4h0.6c0.8,0,1.6-0.2,2.4-0.4c1.6-0.5,3-1.4,4-2.7
	c0.5-0.6,1-1.3,1.3-2.1c0.2-0.4,0.3-0.8,0.4-1.2c0.1-0.2,0.1-0.4,0.2-0.6c0-0.2,0.1-0.5,0.1-0.7c0-0.3,0-0.4,0.1-0.5v-0.2v-0.1v-0.3
	v-0.8v-1.7v-3.4c0-2.3,0-4.5,0-6.8C96.2,50,96.2,45.5,96.2,40.9z M38.5,38L38.5,38c0-0.2,0-0.4,0-0.5c0,0.1-0.1,0.1-0.1,0.2
	c-0.1,0.2-0.2,0.4-0.4,0.3c-0.1-0.1-0.2-0.2-0.1-0.4c0.1-0.9,0.6-1.6,1.3-2.1s1.6-0.8,2.4-0.7c0.9,0.1,1.7,0.5,2.2,1.2
	s0.7,1.5,0.6,2.3c0,0.9-0.5,1.7-1.2,2.3s-1.7,0.8-2.5,0.7c-1.1-0.2-2.1-1.1-2.4-2.1C38.1,38.5,38.3,38.1,38.5,38z M49.5,38L49.5,38
	c0-0.2,0-0.4,0-0.5c0,0.1-0.1,0.1-0.1,0.2c-0.1,0.2-0.2,0.4-0.4,0.3c-0.1-0.1-0.2-0.2-0.1-0.4c0.1-0.9,0.6-1.6,1.3-2.1
	s1.6-0.8,2.4-0.7c0.9,0.1,1.7,0.5,2.2,1.2s0.7,1.5,0.6,2.3c0,0.9-0.5,1.7-1.2,2.3s-1.7,0.8-2.5,0.7c-1.1-0.2-2.1-1.1-2.4-2.1
	C49.1,38.5,49.3,38.1,49.5,38z M27.6,38L27.6,38c0-0.2,0-0.4,0-0.5c0,0.1-0.1,0.1-0.1,0.2c-0.1,0.2-0.2,0.4-0.4,0.3
	c-0.1-0.1-0.2-0.2-0.1-0.4c0.1-0.9,0.6-1.6,1.3-2.1c0.7-0.5,1.6-0.8,2.4-0.7c0.9,0.1,1.7,0.5,2.2,1.2s0.7,1.5,0.6,2.3
	c0,0.9-0.5,1.7-1.2,2.3s-1.7,0.8-2.5,0.7c-1.1-0.2-2.1-1.1-2.4-2.1C27.2,38.5,27.4,38.1,27.6,38z"/>
</svg>
