<?xml version="1.0" encoding="utf-8"?>
<!-- Generator: Adobe Illustrator 22.1.0, SVG Export Plug-In . SVG Version: 6.00 Build 0)  -->
<svg version="1.1" id="Layer_1" xmlns="http://www.w3.org/2000/svg" xmlns:xlink="http://www.w3.org/1999/xlink" x="0px" y="0px"
	 viewBox="0 0 65 81.2" style="enable-background:new 0 0 65 81.2;" xml:space="preserve">
<style type="text/css">
	.st0{fill:#FBED24;}
</style>
<path class="st0" d="M43.5,18.8v35.6c0,3.9-3.2,7-7,7h-1.1c-3.9,0-7-3.2-7-7V18.8c0-3.9,3.2-7,7-7h1.1
	C40.3,11.8,43.5,14.9,43.5,18.8z"/>
<g>
	<path d="M53.1,46.5h-3.7l0,0H23.7c-0.2,0-0.3,0.1-0.4,0.1l0,0l-7.4,4.8l7.4,4.8l0,0c0.1,0.1,0.3,0.1,0.4,0.1h25.7l0,0h3.7
		c2.7,0,5-2.2,5-5S55.9,46.5,53.1,46.5z M48.7,48v2.7H24.4V48H48.7z M22.9,48.6v5.7l-4.3-2.8L22.9,48.6z M24.4,52.2h24.2v2.7H24.4
		V52.2z M53.1,54.9h-3V48h3c1.9,0,3.5,1.6,3.5,3.5S55.1,54.9,53.1,54.9z"/>
	<path d="M18,25.4c1.5,0,2.7-1,3.1-2.4h12.6l3.6,3.6l3.6-3.6h12.7c0.3,1.4,1.6,2.4,3.1,2.4c1.7,0,3.2-1.4,3.2-3.2
		c0-1.7-1.4-3.2-3.2-3.2c-1.5,0-2.7,1-3.1,2.4H40.9l-3.6-3.6l-3.6,3.6H21C20.7,20,19.4,19,17.9,19c-1.7,0-3.2,1.4-3.2,3.2
		C14.8,24,16.2,25.4,18,25.4z M56.6,20.6c0.9,0,1.7,0.8,1.7,1.7c0,0.9-0.7,1.7-1.7,1.7S55,23.2,55,22.3C55,21.4,55.7,20.6,56.6,20.6
		z M37.2,20l2.3,2.3l-2.3,2.3L35,22.3L37.2,20z M18,20.6c0.9,0,1.7,0.7,1.7,1.7c0,0.9-0.7,1.7-1.7,1.7c-0.9,0-1.7-0.8-1.7-1.7
		S17.1,20.6,18,20.6z"/>
	<path d="M9.6,11.3V2.9H8.9c0,0-1.7-0.1-2.3-0.1c-3.9,0-6.8,2.7-6.8,6.4v45.7l0,0c0,0,0,0,0,0.1c0,4.1,3.3,7.4,7.4,7.4h58.1V11.5
		H9.6V11.3z M1.3,9.2c0-2.8,2.2-4.9,5.3-4.9c0.4,0,1,0,1.6,0v43.3c-0.3,0-0.7-0.1-1-0.1c-2.4,0-4.5,1.2-5.9,2.9
		C1.3,50.4,1.3,9.2,1.3,9.2z M63.7,60.7H7.1c-3.2,0-5.9-2.6-5.9-5.9c0-3.2,2.6-5.9,5.9-5.9c0.4,0,1.1,0.1,1.5,0.2l0.8,0.2l0.2-1
		V12.7h54.2L63.7,60.7z"/>
	<path d="M57,31.3H17.6v10H57V31.3z M55.5,39.9h-2.6v-4h-1.5v4H48v-2.6h-1.5v2.6H43v-4h-1.5v4h-3.4v-2.6h-1.5v2.6h-3.4v-4h-1.5v4
		h-3.4v-2.6h-1.5v2.6h-3.4v-4h-1.5v4h-2.6v-7h36.3L55.5,39.9L55.5,39.9z"/>
</g>
</svg>
