<?xml version="1.0" encoding="utf-8"?>
<!-- Generator: Adobe Illustrator 22.1.0, SVG Export Plug-In . SVG Version: 6.00 Build 0)  -->
<svg version="1.1" id="Layer_1" xmlns="http://www.w3.org/2000/svg" xmlns:xlink="http://www.w3.org/1999/xlink" x="0px" y="0px"
	 viewBox="0 0 50 62.5" style="enable-background:new 0 0 50 62.5;" xml:space="preserve">
<path d="M7,49h42V7H14V1H7C3.7,1,1,3.7,1,7v36C1,46.3,3.7,49,7,49z M3,7c0-2.2,1.8-4,4-4h5v34H7c-1.5,0-2.9,0.6-4,1.5V7z M7,39h7V9
	h33v38H7c-2.2,0-4-1.8-4-4S4.8,39,7,39z"/>
<polygon points="33,37 31,37 31,29 29,29 29,37 19,37 19,26 23,26 23,24 19,24 19,14 29,14 29,18 31,18 31,14 42,14 42,24 31,24 
	31,21 29,21 29,24 26,24 26,26 42,26 42,37 36,37 36,39 44,39 44,12 17,12 17,39 33,39 "/>
<rect x="33" y="42" width="11" height="2"/>
<rect x="17" y="42" width="11" height="2"/>
</svg>
