<?xml version="1.0" encoding="utf-8"?>
<!-- Generator: Adobe Illustrator 22.1.0, SVG Export Plug-In . SVG Version: 6.00 Build 0)  -->
<svg version="1.1"
	 id="Layer_1" xmlns:cc="http://creativecommons.org/ns#" xmlns:dc="http://purl.org/dc/elements/1.1/" xmlns:inkscape="http://www.inkscape.org/namespaces/inkscape" xmlns:rdf="http://www.w3.org/1999/02/22-rdf-syntax-ns#" xmlns:sodipodi="http://sodipodi.sourceforge.net/DTD/sodipodi-0.dtd" xmlns:svg="http://www.w3.org/2000/svg"
	 xmlns="http://www.w3.org/2000/svg" xmlns:xlink="http://www.w3.org/1999/xlink" x="0px" y="0px" viewBox="0 0 100 125"
	 style="enable-background:new 0 0 100 125;" xml:space="preserve">
<style type="text/css">
	.st0{fill:#FFFFFF;}
</style>
<g transform="translate(0,-952.36218)">
	<path class="st0" d="M50,965.4c-12.7,0-25,9.9-25,23.8c0,8.9,3.4,14.5,6.7,19.1s6.3,8.3,6.3,14.1v12c0,2.8,2.4,5,5,5h14
		c2.6,0,5-2.2,5-5v-12c0-5.7,3-9.4,6.3-14.1c3.3-4.6,6.7-10.2,6.7-19.1C75,975.2,62.7,965.4,50,965.4z M50,967.4
		c11.7,0,23,9,23,21.8c0,8.4-3.1,13.4-6.3,17.9c-3.1,4.3-6.3,8.3-6.7,14.2H40c-0.3-5.9-3.6-9.9-6.7-14.2c-3.2-4.6-6.3-9.5-6.3-17.9
		C27,976.4,38.3,967.4,50,967.4z M40,1023.4h20v6H40V1023.4L40,1023.4z M40,1031.4h20v3c0,1.8-1.4,3-3,3H43c-1.6,0-3-1.2-3-3V1031.4
		z"/>
</g>
</svg>
