<?xml version="1.0" encoding="utf-8"?>
<!-- Generator: Adobe Illustrator 22.1.0, SVG Export Plug-In . SVG Version: 6.00 Build 0)  -->
<svg version="1.1" id="Layer_1" xmlns="http://www.w3.org/2000/svg" xmlns:xlink="http://www.w3.org/1999/xlink" x="0px" y="0px"
	 viewBox="0 0 96 120" style="enable-background:new 0 0 96 120;" xml:space="preserve">
<style type="text/css">
	.st0{fill:#FFFFFF;}
</style>
<g transform="scale(1 -1)">
	<g transform="translate(0 -96)">
		<g>
			<path marker-end="none" marker-start="none" class="st0" d="M1.7,0v66.7h13l33.8,23.6l33.8-23.6h13V0H1.7z M7.7,3v3.7h9V12h2.5
				l1.8,3.7l0,0V54l0,0l-2.1,4.5h-0.1v0.1L18.1,60H4.7V3H7.7z M78.9,3v0.7h-60V3H78.9z M92.2,3v57H78.8L78,58.5l0,0l0,0L75.7,54
				h-0.1V15.8h0.1l1.9-3.7h3.6V6.8h8.3V3H92.2z M78.9,4.5v0.7h-60V4.5H78.9z M78.9,6v0.7h-60V6H78.9z M78.9,7.5v0.7h-60V7.5H78.9z
				 M78.9,9v0.8H63l0,0H49.6l0,0H18.9V9H78.9z M59.3,12l-0.7,1.5h-4.7L53.2,12H59.3z M27.8,12l-0.7,1.4h-4.7L21.7,12H27.8z M43.4,12
				l-0.7,1.5H38L37.3,12H43.4z M75.1,12l-0.7,1.4h-4.8L69,12H75.1z M7.7,14.2v15h9.8v-15C17.5,14.2,7.7,14.2,7.7,14.2z M79.7,14.2
				v15h9.8v-15C89.5,14.2,79.7,14.2,79.7,14.2z M15.9,15.8v12H9.2v-12C9.2,15.8,15.9,15.8,15.9,15.8z M26.3,15.8V54h-3V15.8H26.3z
				 M73.4,15.8V54h-2.8V15.8H73.4z M87.9,15.8v12h-6.8v-12C81.1,15.8,87.9,15.8,87.9,15.8z M41.9,15.8V54h-3V15.8H41.9z M57.8,15.8
				V54h-3V15.8H57.8z M12.9,16.5v3h2.3v-3H12.9z M84.9,16.5v3h2.3v-3H84.9z M9.9,16.5v3h2.3v-3H9.9z M81.9,16.5v3h2.3v-3H81.9z
				 M12.9,20.2v3h2.3v-3H12.9z M84.9,20.2v3h2.3v-3H84.9z M9.9,20.3v3h2.3v-3H9.9z M81.9,20.3v3h2.3v-3H81.9z M12.9,24v3h2.3v-3
				H12.9z M84.9,24v3h2.3v-3H84.9z M9.9,24v3h2.3v-3H9.9z M81.9,24v3h2.3v-3H81.9z M68.3,26.2v1.5h-8.1v-1.5H68.3z M36.7,26.2v1.5
				h-8v-1.5H36.7z M52.5,26.2v1.5h-8.1v-1.5H52.5z M36.7,29.2v6h-8.1v-6H36.7z M52.5,29.2v6h-8.4v-6H52.5z M68.3,29.2v6h-8.2v-6
				H68.3z M7.7,35.2v13.5l0,0c0.2,2.5,2.3,4.5,4.9,4.5s4.7-2,4.9-4.5l0,0V35.2H7.7z M79.7,35.2v13.5l0,0c0.2,2.5,2.3,4.5,4.9,4.5
				s4.7-2,4.9-4.5l0,0V35.2H79.7z M15.9,36.7V48l0,0c0,0.1,0,0.2,0,0.4c0,1.9-1.5,3.4-3.4,3.4s-3.4-1.5-3.4-3.4c0-0.1,0-0.3,0-0.4
				l0,0V36.7H15.9z M36,36.7V48l0,0c0,0.1,0,0.2,0,0.4c0,1.9-1.5,3.4-3.4,3.4c-1.9,0-3.4-1.5-3.4-3.4c0-0.1,0-0.3,0-0.4l0,0V36.7H36
				z M51.8,36.7V48l0,0c0,0.1,0,0.2,0,0.4c0,1.9-1.5,3.4-3.4,3.4S45,50.2,45,48.4c0-0.1,0-0.3,0-0.4l0,0V36.7H51.8z M67.5,36.7V48
				l0,0c0,0.1,0,0.2,0,0.4c0,1.9-1.5,3.4-3.4,3.4s-3.4-1.5-3.4-3.4c0-0.1,0-0.3,0-0.4l0,0V36.7H67.5z M87.9,36.7V48l0,0
				c0,0.1,0,0.2,0,0.4c0,1.9-1.5,3.4-3.4,3.4s-3.4-1.5-3.4-3.4c0-0.1,0-0.3,0-0.4l0,0V36.7H87.9z M9.9,37.5v3h2.3v-3H9.9z
				 M12.9,37.5v3h2.3v-3H12.9z M30,37.5v3h2.3v-3H30z M33,37.5v3h2.3v-3H33z M45.7,37.5v3H48v-3H45.7z M48.7,37.5v3H51v-3H48.7z
				 M61.5,37.5v3h2.3v-3H61.5z M64.5,37.5v3h2.3v-3H64.5z M81.9,37.5v3h2.3v-3H81.9z M84.9,37.5v3h2.3v-3H84.9z M9.9,41.2v3h2.3v-3
				H9.9z M12.9,41.2v3h2.3v-3H12.9z M30,41.2v3h2.3v-3H30z M33,41.2v3h2.3v-3H33z M45.7,41.2v3H48v-3H45.7z M48.7,41.2v3H51v-3H48.7
				z M61.5,41.2v3h2.3v-3H61.5z M64.5,41.2v3h2.3v-3H64.5z M81.9,41.2v3h2.3v-3H81.9z M84.9,41.2v3h2.3v-3H84.9z M12.9,45v3h2.3v-3
				H12.9z M33,45v3h2.3v-3H33z M48.7,45v3H51v-3H48.7z M64.5,45v3h2.3v-3H64.5z M84.9,45v3h2.3v-3H84.9z M9.9,45v3h2.3v-3H9.9z
				 M30,45v3h2.3v-3H30z M45.7,45v3H48v-3H45.7z M61.5,45v3h2.3v-3H61.5z M81.9,45v3h2.3v-3H81.9z M12.6,51c1.3,0,2.4-1,2.6-2.2H10
				C10.1,50,11.2,51,12.6,51z M32.6,51c1.3,0,2.4-1,2.6-2.2H30C30.2,50,31.3,51,32.6,51z M48.4,51c1.3,0,2.4-1,2.6-2.2h-5.2
				C46,50,47.1,51,48.4,51z M64.1,51c1.3,0,2.4-1,2.6-2.2h-5.2C61.7,50,62.8,51,64.1,51z M84.6,51c1.3,0,2.4-1,2.6-2.2H82
				C82.1,50,83.2,51,84.6,51z M48.4,53.2c1.8,0,3.3-0.9,4.2-2.4V54h-0.1l-2.1,4.5h-4l-2.2-4.3v-3.4C45,52.3,46.6,53.2,48.4,53.2z
				 M68.3,50.9V54h-0.1l-2.1,4.5h-3.9L60,54.2v-3.1c0.9,1.3,2.4,2.2,4.1,2.2C65.9,53.2,67.4,52.3,68.3,50.9z M32.6,53.2
				c1.7,0,3.2-0.8,4-2.1V54h-0.1l-2.1,4.5h-3.7l-2.2-4.3v-3.1C29.4,52.4,30.9,53.2,32.6,53.2z M58.6,56.2l0.7,1.5h-6.1l0.7-1.5H58.6
				z M27.1,56.3l0.7,1.5h-6.1l0.7-1.5H27.1z M42.7,56.3l0.7,1.5h-6.1l0.7-1.5H42.7z M74.3,56.3l0.7,1.5h-6l0.7-1.5H74.3z M75.8,60.7
				v1.5H21v-1.5H75.8z M6,61.5v2.2H4.7v-2.2H6z M8.3,61.5v2.2H6.8v-2.2H8.3z M10.5,61.5v2.2H9v-2.2H10.5z M12.8,61.5v2.2h-1.5v-2.2
				H12.8z M15,61.5v2.2h-1.5v-2.2H15z M17.3,61.5v2.2h-1.5v-2.2H17.3z M18.8,61.5v2.2H18v-2.2H18.8z M78.8,61.5v2.2H78v-2.2H78.8z
				 M81,61.5v2.2h-1.5v-2.2H81z M83.2,61.5v2.2h-1.5v-2.2H83.2z M85.5,61.5v2.2H84v-2.2H85.5z M87.8,61.5v2.2h-1.5v-2.2H87.8z
				 M90,61.5v2.2h-1.5v-2.2H90z M92.2,61.5v2.2h-1.5v-2.2H92.2z M75.8,63.8V66H21v-2.2H75.8z M25.5,68.2l22.3,15.6l0,0l0.1,0.1
				c0,0,0.1,0,0.1,0.1h0.1l0,0c0.1,0,0.1,0,0.2,0h0.1c0.1,0,0.1,0,0.2-0.1l0,0l22.9-15.6h3.4L48.5,86.7L22,68.2H25.5z M68.8,68.2
				L48.2,82.3L28.1,68.2H68.8z"/>
		</g>
	</g>
</g>
</svg>
