<?xml version="1.0" encoding="utf-8"?>
<!-- Generator: Adobe Illustrator 22.1.0, SVG Export Plug-In . SVG Version: 6.00 Build 0)  -->
<svg version="1.1" id="Layer_1" xmlns="http://www.w3.org/2000/svg" xmlns:xlink="http://www.w3.org/1999/xlink" x="0px" y="0px"
	 viewBox="0 0 100 125" style="enable-background:new 0 0 100 125;" xml:space="preserve">
<style type="text/css">
	.st0{fill:#CCCCFF;}
</style>
<ellipse class="st0" cx="49.8" cy="31.5" rx="13.1" ry="7.6"/>
<path d="M68,42H56v-2c0-0.6-0.4-1-1-1h-1v-2c0-2.2-1.8-4-4-4s-4,1.8-4,4v2h-1c-0.6,0-1,0.4-1,1v2H32c-0.6,0-1,0.4-1,1v7
	c0,0.6,0.4,1,1,1h1v18c0,0.6,0.4,1,1,1h4c0.6,0,1-0.4,1-1v-3h22v3c0,0.6,0.4,1,1,1h4c0.6,0,1-0.4,1-1V51h1c0.6,0,1-0.4,1-1v-7
	C69,42.4,68.6,42,68,42z M61,60H39v-9h22V60z M33,49v-0.6l4.4-4.4h5.2l-5,5H33z M50.6,44l-5,5h-5.2l5-5H50.6z M56.4,49l5-5h5.2l-5,5
	H56.4z M58.6,44l-5,5h-5.2l5-5H58.6z M48,37c0-1.1,0.9-2,2-2s2,0.9,2,2v2h-4V37z M46,41h8v1h-8V41z M34.6,44L33,45.6V44H34.6z
	 M37,68h-2V51h2V68z M39,64v-2h22v2H39z M65,68h-2V51h2V68z M64.4,49l2.6-2.6V49H64.4z M49,30v-3c0-0.6,0.4-1,1-1s1,0.4,1,1v3
	c0,0.6-0.4,1-1,1S49,30.6,49,30z M54.2,32.8c-0.4-0.4-0.4-1,0-1.4l2.1-2.1c0.4-0.4,1-0.4,1.4,0s0.4,1,0,1.4l-2.1,2.1
	C55.2,33.2,54.6,33.2,54.2,32.8z M42.2,30.6c-0.4-0.4-0.4-1,0-1.4s1-0.4,1.4,0l2.1,2.1c0.4,0.4,0.4,1,0,1.4c-0.4,0.4-1,0.4-1.4,0
	L42.2,30.6z"/>
</svg>
