<?xml version="1.0" encoding="utf-8"?>
<!-- Generator: Adobe Illustrator 22.1.0, SVG Export Plug-In . SVG Version: 6.00 Build 0)  -->
<svg version="1.1" id="Layer_1" xmlns="http://www.w3.org/2000/svg" xmlns:xlink="http://www.w3.org/1999/xlink" x="0px" y="0px"
	 viewBox="0 0 50 62.5" style="enable-background:new 0 0 50 62.5;" xml:space="preserve">
<style type="text/css">
	.st0{fill:none;stroke:#000000;stroke-width:2;stroke-linecap:round;stroke-linejoin:round;stroke-miterlimit:10;}
	.st1{fill:none;stroke:#000000;stroke-width:2;stroke-miterlimit:10;}
	.st2{fill:#CCCCFF;}
</style>
<g>
	<g>
		<polygon class="st0" points="8.5,2 11,5.9 15.5,7.1 12.6,10.7 12.8,15.3 8.5,13.7 4.2,15.3 4.4,10.7 1.5,7.1 6,5.9 		"/>
		<line class="st1" x1="20.5" y1="7" x2="37.5" y2="7"/>
		<line class="st1" x1="20.5" y1="12" x2="48.5" y2="12"/>
	</g>
	<polygon class="st0" points="8.5,18.3 11,22.2 15.5,23.4 12.6,27 12.8,31.7 8.5,30 4.2,31.7 4.4,27 1.5,23.4 6,22.2 	"/>
	<line class="st1" x1="20.5" y1="23" x2="37.5" y2="23"/>
	<line class="st1" x1="20.5" y1="28" x2="48.5" y2="28"/>
	<g>
		<polygon class="st0" points="8.5,34.7 11,38.6 15.5,39.8 12.6,43.4 12.8,48 8.5,46.4 4.2,48 4.4,43.4 1.5,39.8 6,38.6 		"/>
		<line class="st1" x1="20.5" y1="40" x2="37.5" y2="40"/>
		<line class="st1" x1="20.5" y1="45" x2="48.5" y2="45"/>
	</g>
</g>
<path class="st2" d="M12.1,15c-0.1,0-0.2,0-0.2-0.1L8.5,13l-3.4,2c0,0-0.1,0-0.2,0s-0.2,0-0.3-0.1c-0.2-0.1-0.2-0.3-0.2-0.5l0.7-4.1
	L2.3,7.5C2.2,7.4,2.2,7.2,2.2,7c0.1-0.2,0.2-0.3,0.4-0.3l3.8-0.6l1.7-3.7c0.1-0.2,0.2-0.3,0.4-0.3l0,0c0.2,0,0.4,0.1,0.4,0.3
	l1.7,3.7l3.8,0.6c0.2,0,0.3,0.2,0.4,0.3c0.1,0.2,0,0.4-0.1,0.5L12,10.4l0.7,4.1c0,0.2,0,0.4-0.2,0.5C12.3,15,12.2,15,12.1,15z"/>
<path class="st2" d="M12.1,31.4c-0.1,0-0.2,0-0.2-0.1l-3.4-1.9l-3.4,1.9c-0.1,0-0.2,0.1-0.2,0.1c-0.1,0-0.2,0-0.3-0.1
	c-0.2-0.1-0.2-0.3-0.2-0.5l0.7-4.1l-2.7-2.9c-0.1-0.1-0.2-0.3-0.1-0.5c0-0.1,0.1-0.3,0.3-0.3l3.8-0.6l1.7-3.7
	c0.1-0.2,0.2-0.3,0.4-0.3l0,0c0.2,0,0.4,0.1,0.4,0.3l1.7,3.7l3.8,0.6c0.2,0,0.3,0.2,0.4,0.3c0.1,0.2,0,0.4-0.1,0.5L12,26.7l0.7,4.1
	c0,0.2,0,0.4-0.2,0.5C12.3,31.3,12.2,31.4,12.1,31.4z"/>
<path class="st2" d="M12.1,47.7c-0.1,0-0.2,0-0.2-0.1l-3.4-1.9l-3.4,1.9c-0.1,0-0.2,0.1-0.2,0.1c-0.1,0-0.2,0-0.3-0.1
	c-0.2-0.1-0.2-0.3-0.2-0.5L5.1,43l-2.7-2.9c-0.1-0.1-0.2-0.3-0.1-0.5c0.1-0.2,0.2-0.3,0.4-0.3l3.8-0.6L8.1,35
	c0.1-0.2,0.2-0.3,0.4-0.3l0,0c0.2,0,0.4,0.1,0.4,0.3l1.7,3.7l3.8,0.6c0.2,0,0.3,0.2,0.4,0.3c0.1,0.2,0,0.4-0.1,0.5L11.9,43l0.7,4.1
	c0,0.2,0,0.4-0.2,0.5C12.3,47.6,12.2,47.7,12.1,47.7z"/>
</svg>
